PathFileType	4	(X/Y/Z)	Walk1_0-155.trc
DataRate	CameraRate	NumFrames	NumMarkers	Units	OrigDataRate	OrigDataStartFrame	OrigNumFrames
30	30	6	22	m	30	58	155
Frame#	Time	Hip			RHip			RKnee			RAnkle			RBigToe			RSmallToe			RHeel			LHip			LKnee			LAnkle			LBigToe			LSmallToe			LHeel			Neck			Head			Nose			RShoulder			RElbow			RWrist			LShoulder			LElbow			LWrist		
		X1	Y1	Z1	X2	Y2	Z2	X3	Y3	Z3	X4	Y4	Z4	X5	Y5	Z5	X6	Y6	Z6	X7	Y7	Z7	X8	Y8	Z8	X9	Y9	Z9	X10	Y10	Z10	X11	Y11	Z11	X12	Y12	Z12	X13	Y13	Z13	X14	Y14	Z14	X15	Y15	Z15	X16	Y16	Z16	X17	Y17	Z17	X18	Y18	Z18	X19	Y19	Z19	X20	Y20	Z20	X21	Y21	Z21	X22	Y22	Z22
59	1.9666666666666663	-1.425521914939659	0.8695381847390886	0.34437683502866745	-1.4209525618587906	0.8505830849559057	0.4496741044039237	-1.3070643070285473	0.5060518372451125	0.4801928780306935	-1.6508590935994887	0.2647347050159801	0.4498785503376192	-1.6035999021530354	0.049660466600704785	0.46944252501990624	-1.6296994994212453	0.07623824215795384	0.506159427679844	-1.7347546089476835	0.2538725303012481	0.4444947057255635	-1.4168184741154657	0.8519697784186243	0.23434814352040623	-1.3333427971843388	0.4944627811419195	0.25983276560884183	-1.3536944161040172	0.10290695238982522	0.2838695852371636	-1.137201194220039	0.0360252908071175	0.3006387600751435	-1.1778501638061767	0.03128523482413926	0.23826862453331893	-1.3941972421380575	0.02533731186439349	0.2940499704685323	-1.464999804910038	1.5583829665968796	0.32533629214002824	-1.4237588357127273	1.8156253594347052	0.34835447896617777	-1.3145867804635707	1.672968556725354	0.3352196944227525	-1.499548019913517	1.4428574758874053	0.5120926291299389	-1.430350102976727	1.1223951134372372	0.5802702251820374	-1.3679330858487946	0.8702523937802945	0.6084944565038746	-1.5095321840340312	1.4358319483250495	0.11809483982393515	-1.4544259939293318	1.1159487445491396	0.10210222337824862	-1.395619348834756	0.8688542384418707	0.07460408550440378
60	2.0	-1.3926895953599965	0.8770387232234599	0.3424271206025253	-1.3826558678847036	0.8570005365462932	0.449660470864815	-1.2302474294447212	0.5269417472891558	0.4728764929865772	-1.560862393514471	0.2716654758343351	0.4492072446729591	-1.493381115459763	0.07021328365731304	0.47517781570942635	-1.5211713010304662	0.09542600774386582	0.5129726317056249	-1.6416614037097368	0.2569582223412465	0.44557434512092026	-1.3875978848242487	0.8556833830817676	0.23350550409641463	-1.3308835712797795	0.49211446968999284	0.256798601830799	-1.355116893530903	0.10257069347349188	0.28418344686851704	-1.1378607633609876	0.03601028515319182	0.30128082616534396	-1.1787839629698325	0.03282779437261298	0.23806181525244752	-1.3955814774071937	0.02818195882217779	0.29295395219516973	-1.4296069212132871	1.5663687992738922	0.323568758376312	-1.386845163741061	1.8236599360806847	0.3474250814801931	-1.2782338049908475	1.6803949815957595	0.333025682393575	-1.4666201015694937	1.4500659985214452	0.5119125923479498	-1.409677162133667	1.128178953620813	0.5780790477487189	-1.3617784968901685	0.873909568523307	0.606735523546635	-1.4723053831055404	1.444386393713123	0.11628563439294466	-1.410534420135655	1.125529667502801	0.09877818719892988	-1.3334572772655673	0.8818555183055516	0.07374205637912512
61	2.033333333333333	-1.361032349228666	0.883845419388644	0.3408023036442382	-1.3457370751643274	0.8622214779370629	0.4499863632443019	-1.1638977823252057	0.5472503190263336	0.46468711806685453	-1.4649960604832861	0.2665983478869143	0.4474086399393141	-1.3689133641009072	0.08773733660773368	0.47743636275386997	-1.400890086345857	0.10929982403635506	0.5165591195792856	-1.540510292098152	0.24337528911238013	0.44612471169520224	-1.3592352882948413	0.8586738576535841	0.23314406171559282	-1.3272292645585249	0.49084422169961195	0.25559463739330396	-1.3561292667462674	0.10251378074518519	0.2851776715785479	-1.1379900075646545	0.03555095843260856	0.3014364364964607	-1.1795665242606466	0.03338674373589924	0.2383306019581888	-1.3963272142665275	0.03075457852889678	0.2924496171257705	-1.3940845339416748	1.5730693192066592	0.32211523462153513	-1.3498542828723266	1.8302488527185659	0.34675648389645874	-1.2408472555283203	1.6857154012830866	0.33034983663659057	-1.4336441211831716	1.45595407805528	0.5119502797329775	-1.3917225605994523	1.134656607226315	0.5746221515522056	-1.3544266809345367	0.8791594997576729	0.6050327982497841	-1.435098192106892	1.451825122093832	0.11535215888786145	-1.3661081629468472	1.1341476507220438	0.09311633841272965	-1.2715360750076679	0.8959033113093461	0.07336716190569673
62	2.066666666666667	-1.3296623532371088	0.8891959836649699	0.33945244622146864	-1.3097175187445977	0.8662307328104938	0.45034442603986924	-1.1093903315633125	0.5643687347261199	0.4561976169365071	-1.3643414498545732	0.2510176091961403	0.44502872393794085	-1.2376553124761005	0.09844203468714112	0.47522477386377593	-1.274316073380811	0.11512201651252882	0.5159925009933599	-1.4326477744536827	0.21635630278162898	0.44639797701702616	-1.3309764213863327	0.8608833077569635	0.2332265605132407	-1.3202699986351267	0.4899301894707433	0.2560562177596574	-1.356301619329419	0.10219172258092309	0.2873032427595738	-1.1380034833495536	0.03394880655406561	0.3008464517973814	-1.1807617010333633	0.03227719012564678	0.2392449003660548	-1.396262332693476	0.032267254022844534	0.292901778173255	-1.3581366655735618	1.5778883994789306	0.32080854748546567	-1.312786274436244	1.8348761325973748	0.34628407962475305	-1.2026361583994674	1.6883815487053673	0.32769896826781814	-1.4003410668393954	1.4599343798360063	0.5119037708623704	-1.3753135785970771	1.1410244831337961	0.5700846089832664	-1.3452719358052228	0.8847141065622088	0.6035337860978103	-1.3978836425727015	1.4574405499774021	0.11487026843928812	-1.3223190308455757	1.1408308285418036	0.08626790109060722	-1.2103947961294226	0.9098431812723351	0.07352106753776225
63	2.1	-1.2979293460763948	0.8925409511015363	0.33821027843053686	-1.2743632157383882	0.8690074050602462	0.45037051114644383	-1.0659587965828714	0.576098319546979	0.44770071150520274	-1.2597452810209508	0.22819608841117922	0.44252048196989446	-1.1037516764946647	0.10220562802263684	0.4689683604702851	-1.144228852020894	0.11341454268568582	0.5115682941693463	-1.3194040576322792	0.18111390958859103	0.4461381711021836	-1.302510988833328	0.8623003740605267	0.2335275290653006	-1.3093732777221376	0.4885265045769773	0.2576133865271209	-1.3554204202208386	0.10126390162097157	0.2906500756571645	-1.1381390913256588	0.031040999855213743	0.29950361575393564	-1.18265988785528	0.02953257769526549	0.24077457849283454	-1.3956082029429318	0.03240293557023412	0.29445772499148204	-1.3214849894700906	1.580595126893124	0.3196616460828493	-1.2754780369012702	1.8373241677306051	0.3459346783256949	-1.1641287643397737	1.6885731998059557	0.32594109598011956	-1.3664020248685569	1.46177639423015	0.5115533593207576	-1.3583974153552252	1.1459739950809544	0.5655451501078865	-1.3334486393761307	0.8892446997796105	0.6022523193969063	-1.360494231533177	1.4608785107264834	0.11448801995832106	-1.2797635331150163	1.1452745472979324	0.0793229562880118	-1.1503694990694613	0.9227674935876712	0.07428341204591117
64	2.1333333333333333	-1.2653559473261895	0.8935879896412332	0.3368282226786768	-1.2395056742212358	0.8702034467921971	0.4497403475241456	-1.0311445302629538	0.5808400040188062	0.43931692733485206	-1.1524847957602102	0.2022005941954215	0.43978185509288237	-0.9698967080318806	0.10283157880936777	0.4601409899825986	-1.013015456202425	0.10843047594646134	0.50437631971585	-1.2025940514013673	0.14357359833654773	0.44428684598102713	-1.2736043039346825	0.862635964614096	0.2337573082588014	-1.2951364365594804	0.48622490533188745	0.25979231524335056	-1.353746444546607	0.09978097215964096	0.2944321358373237	-1.138429434647624	0.027291525471749095	0.2975895653414295	-1.1851631332168535	0.025823026323634854	0.24267981425660928	-1.395052662741705	0.03142962626925371	0.2968937371791012	-1.2840307727148579	1.5811727412206111	0.31879588572832906	-1.237725015102275	1.837527713443854	0.34547847128571024	-1.1256804695119025	1.6868217616963561	0.32559659473369207	-1.3315339042643373	1.4615355984542584	0.5108841508460161	-1.3388068235161448	1.1484871148489295	0.561963113415098	-1.3180500987993844	0.8917731231517857	0.6011797384397771	-1.3227288554896763	1.462040776337929	0.11405952649826867	-1.2382281017858447	1.1476684950122058	0.07333422395417155	-1.0919366791701328	0.9340902020228965	0.07558928922885458
